/* XPM */
static char * fittowindow_xpm[] = {
"16 16 7 1",
" 	c None",
".	c #C0C0C0",
"+	c #0000FF",
"@	c #FFFFFF",
"#	c #808080",
"$	c #000000",
"%	c #80F8B6",
".+++++++++++++++",
".+@@#$$$$#@@@@@+",
".+@$$####$$@@@@+",
".+$#.@....#$@@@+",
".+$.@@@....$#@@+",
".$#@@@....@#$@@+",
".$.#........$@@+",
".$.#......@.$@@+",
".$#......@@#$@@+",
".+$.....@@.$#@@+",
".+$#.@@@@.#$#@@+",
".+@$$#..#$$#$#@+",
".+@@%$$$$##$#$#+",
".+@@@@@@@@@#$@$#",
".+++++++++++#$#$",
"................"};
