/* XPM */
static char * orbit_xpm[] = {
"16 16 4 1",
" 	c None",
".	c #C0C0C0",
"+	c #FF0000",
"@	c #FFFF00",
"................",
"..........+.....",
"..........++....",
"......+++++@+...",
"....++@@@@@@@+..",
"...+@@@@@@@@@+..",
"..+@@@+++++@+...",
"..+@++....++....",
"..++......+...+.",
"..+@++......++@.",
"..+@@@++++++@@@.",
"...+@@@@@@@@@@+.",
"....++@@@@@@++..",
"......++++++....",
"................",
"................"};
