/* XPM */
static char * page_xpm[] = {
"16 16 4 1",
" 	c None",
".	c #C0C0C0",
"+	c #000000",
"@	c #FFFFFF",
"...++++++++.....",
"...+@@@@@@++....",
"...+@@@@@@+@+...",
"...+@@@@@@++++..",
"...+@@@@@@@@@+..",
"...+@@@@@@@@@+..",
"...+@@@@@@@@@+..",
"...+@@@@@@@@@+..",
"...+@@@@+@@@@+..",
"...+@@@@@+@@@+..",
"...+@@@@@@@@@+..",
"...+@@@@@@@@@+..",
"...+++++++++++..",
"................",
"................",
"................"};
