/* XPM */
static char * print_xpm[] = {
"16 16 6 1",
" 	c None",
".	c #C0C0C0",
"+	c #000000",
"@	c #FFFFFF",
"#	c #005016",
"$	c #000016",
".....+++++++++..",
"....+@@@@@@@@+..",
"....+@+++++@+...",
"...+@@@@@@@@+...",
"...+@+++++@+#++.",
"..+@@@@@@@@+.+.+",
".++++++++++.+.++",
"+..........+.+.+",
"+++++++++++++..+",
"+...........+.+.",
"$......@@@..+++.",
"+++++++++++++.+.",
".+.........+.+..",
"..+++++++++++...",
"................",
"................"};
