/* XPM */
static const char * rectanglemkp_xpm[] = {
"16 15 5 1",
" 	c None",
".	c #C0C0C0",
"+	c #000000",
"@	c #FFFFFF",
"#	c #FF0000",
"................",
"................",
".......++.......",
"......+@@+......",
"......+@@+......",
".####+@@+#####..",
".####+@@+#####..",
".##.+@@+....##..",
".##.+@@+....##..",
".##+@@+.....##..",
".##+@@+.....##..",
".#+@@+......##..",
".#++@+......##..",
".+##+#########..",
".+############.."};
