/* XPM */
static const char * select_xpm[] = {
"16 16 7 1",
" 	c None",
".	c #C0C0C0",
"+	c #000000",
"@	c #C0D0D4",
"#	c #FFFFFF",
"$	c #005002",
"%	c #007816",
".....+..........",
".....++.........",
"@....+#+........",
".....+##$.......",
".....+###+......",
".....+####+.....",
".....+#####+....",
".....+#####.+...",
".....+####++++..",
".....+##+#+.....",
".....+#+%##+....",
".....++..+#+....",
".....+...+##+...",
"..........+#+...",
"..........++....",
"................"};
