/* XPM */
static char * sphere_xpm[] = {
"16 16 6 1",
" 	c None",
".	c #C0C0C0",
"+	c #008080",
"@	c #000000",
"#	c #00FFFF",
"$	c #FFFFFF",
"......+++@@.....",
"....++#+#++@@...",
"...++#####+++@..",
"..++#$$$###+++@.",
"..+#$$$$##+#++@.",
".++#$$$$###+++@@",
".++#$$$$##+#+@+@",
".++#$$$$###+++@@",
".++#######+#+@+@",
".+++#####+#+++@@",
"..+++#+#+#+++@@.",
"..++++#+#+++@+@.",
"...++++++++@+@..",
"....++++++@+@...",
"......@@@@@.....",
"................"};
