/* XPM */
static char * tsa_xpm[] = {
"32 32 15 1",
" 	c None",
".	c #FFFFFF",
"+	c #C0C0C0",
"@	c #808080",
"#	c #00FF00",
"$	c #008000",
"%	c #000000",
"&	c #FF0000",
"*	c #800000",
"=	c #808000",
"-	c #000080",
";	c #008080",
">	c #0000FF",
",	c #800080",
"'	c #00FCBE",
"..............+@@+..............",
"............+#####@.............",
"............#####$$@............",
"...........@#@#$$$$$+...........",
"..........+#+#$@@%$$@...........",
"..........##+#$..$$$$...........",
"......+@&*#+#$*&+@$$$+..........",
".....@***$#+#=&&&&*=$+..........",
"....*****$###***&&&&&@..........",
"...@****%###$=****&&&&&+........",
"..+****+@###@.+@-***&&&&@.......",
"..@***+.@###;>>>>@@***&&&&......",
"..@**@..$##$-%>>>>;$$**&@&&.....",
"..@**@+-$##$----@@;$$$**&+&&....",
"..@**->-$##$@@+...@$$$+**&+&@...",
"..+,>>>-$##@......@$$#..**&+&+..",
"..+>>>--$##@......@$#@.@-**&&@..",
".+->>-,=$#$@......$##@>>>-*&&&..",
".@>>-,@=$#$@......$$;>>>>-**&&+.",
".->>-*&=$#$@.....+->>>>>-@@*&&@.",
".->>>-,=$$$@.+@>>>>>>>>-@.@*&&@.",
".@->>>>>>-->>>>>>>>>>--+..@***@.",
".+-->>>>>@++++@>>>>--+...+****+.",
"..+--->>>>>>>>>>---$+.++@****@..",
"....@@---------,*&&&*********+..",
".......+'$$$@***&&&&********+...",
"........@$$$+.+=**********@.....",
"........+$$$$.+##$=@@@@@+.......",
".........@$$$$$###+.............",
".........+$$$$$#$+..............",
"..........+$$$$$@...............",
"...........+@@@+................"};
