/* XPM */
static char * zoomtowindow_xpm[] = {
"16 16 9 1",
" 	c None",
".	c #C0C0C0",
"+	c #000000",
"@	c #FFFFFF",
"#	c #0000FF",
"$	c #000080",
"%	c #808080",
"&	c #00FFFF",
"*	c #006420",
"................",
"........++++....",
".......+....+...",
"......+@@@...+..",
".....+.@....@.+.",
"..#$#+.@%%..@.+#",
"..$@@+......@.+#",
"..#@@+.....@@.+#",
"..$@@@+.@@@@.+@#",
"..#@@@@+....+%+#",
"..$@@@@@&*++@+@+",
"..#@@@@@@@@@@@+@",
"..$@@@@@@@@@@@@+",
"..#@@@@@@@@@@@@$",
"..$#$#$#$#$#$#$#",
"................"};
