/* XPM */
static char * zoominter_xpm[] = {
"16 16 7 1",
" 	c None",
".	c #C0C0C0",
"+	c #FF0000",
"@	c #000000",
"#	c #FFFFFF",
"$	c #808080",
"%	c #00FC7F",
"............++..",
"...@@@@.....++..",
"..@....@..++++++",
".@###...@.++++++",
"@.#....#.@..++..",
"@.#$$..#.@..++..",
"@......#.@......",
"@.....##.@......",
".@.####.%.......",
"..@....@$@......",
"...@@@@.@#@.....",
".........@#@....",
"+++++.....@#....",
"+++++......@....",
"................",
"................"};
